<svg xmlns="http://www.w3.org/2000/svg" xmlns:xlink="http://www.w3.org/1999/xlink" width="32" height="32" version="1.1" viewBox="0 0 32 32"><title>Artboard 3</title><desc>Created with Sketch.</desc><defs><linearGradient id="linearGradient-1" x1="50%" x2="50%" y1="0%" y2="100%"><stop offset="0%" stop-color="#6F4824"/><stop offset="100%" stop-color="#8F5D2F"/></linearGradient><linearGradient id="linearGradient-2" x1="2.734%" x2="100%" y1="39.021%" y2="39.021%"><stop offset="0%" stop-color="#BF9155"/><stop offset="100%" stop-color="#8B582B"/></linearGradient><path id="path-3" d="M24,21.1715729 L22.1715729,23 L24,24.8284271 L24,29 C24,29.5522847 23.5522847,30 23,30 L9.5,30 L8,30 L8,28.5 L8,17.5 L8,16 L9.5,16 L23,16 C23.5522847,16 24,16.4477153 24,17 L24,21.1715729 Z M10,18 L10,28 L22,28 L22,18 L10,18 Z M12,22 L22,22 L22,24 L12,24 L12,22 Z"/><filter id="filter-4" width="118.8%" height="121.4%" x="-9.4%" y="-10.7%" filterUnits="objectBoundingBox"><feMorphology in="SourceAlpha" operator="dilate" radius=".5" result="shadowSpreadOuter1"/><feOffset dx="0" dy="0" in="shadowSpreadOuter1" result="shadowOffsetOuter1"/><feColorMatrix in="shadowOffsetOuter1" type="matrix" values="0 0 0 0 0 0 0 0 0 0 0 0 0 0 0 0 0 0 0.137879303 0"/></filter></defs><g id="Page-1" fill="none" fill-rule="evenodd" stroke="none" stroke-width="1"><g id="Artboard-3"><ellipse id="Oval" cx="16" cy="7" fill="url(#linearGradient-1)" rx="16" ry="6"/><path id="Combined-Shape" fill="#000" d="M0.910430441,21 L0,21 L0,25 C0,28.3137085 7.163444,31 16,31 C24.836556,31 32,28.3137085 32,25 L32,21 L31.0895696,21 C31.6791775,21.6255579 32,22.2987292 32,23 C32,26.3137085 24.836556,29 16,29 C7.163444,29 0,26.3137085 0,23 C0,22.2987292 0.320822513,21.6255579 0.910430441,21 Z" opacity=".066"/><rect id="Rectangle-15" width="2" height="2" x="22" y="21" fill="#644222"/><path id="Combined-Shape" fill="url(#linearGradient-2)" d="M32,8 L32,25 C32,28.3137085 24.836556,31 16,31 C7.163444,31 0,28.3137085 0,25 L0,9 L-6.66133815e-15,9 C0,12.3137085 7.163444,15 16,15 C24.836556,15 32,12.3137085 32,9 L32,8 Z"/><ellipse id="Oval" cx="16" cy="7.5" fill="#794E27" rx="16" ry="6.5"/><g id="Combined-Shape"><use fill="#000" fill-opacity="1" filter="url(#filter-4)" xlink:href="#path-3"/><use fill="#FFF" fill-rule="evenodd" xlink:href="#path-3"/></g><ellipse id="Oval-5" cx="5.5" cy="22" fill="#000" fill-opacity=".237" rx="1" ry="1"/><ellipse id="Oval-5" cx="3.5" cy="21" fill="#000" fill-opacity=".237" rx="1" ry="1"/><ellipse id="Oval-5" cx="1.5" cy="20" fill="#000" fill-opacity=".237" rx="1" ry="1"/></g></g></svg>